<svg width="109" height="13" viewBox="0 0 109 13" fill="none" xmlns="http://www.w3.org/2000/svg">
<path d="M0.74 10V3H3.04C3.58667 3 4.03667 3.09 4.39 3.27C4.74333 3.45 5.00333 3.69333 5.17 4C5.34333 4.30667 5.43 4.65333 5.43 5.04C5.43 5.42 5.34667 5.76333 5.18 6.07C5.01333 6.37667 4.75333 6.62333 4.4 6.81C4.04667 6.99 3.59333 7.08 3.04 7.08H1.58V10H0.74ZM1.58 6.37H3.02C3.58 6.37 3.97667 6.25333 4.21 6.02C4.45 5.78 4.57 5.45333 4.57 5.04C4.57 4.62 4.45 4.29333 4.21 4.06C3.97667 3.82 3.58 3.7 3.02 3.7H1.58V6.37ZM7.69664 10.12C7.28331 10.12 6.93997 10.05 6.66664 9.91C6.39331 9.77 6.18997 9.58333 6.05664 9.35C5.92331 9.11667 5.85664 8.86333 5.85664 8.59C5.85664 8.08333 6.04997 7.69333 6.43664 7.42C6.82331 7.14667 7.34997 7.01 8.01664 7.01H9.35664V6.95C9.35664 6.51667 9.24331 6.19 9.01664 5.97C8.78997 5.74333 8.48664 5.63 8.10664 5.63C7.77997 5.63 7.49664 5.71333 7.25664 5.88C7.02331 6.04 6.87664 6.27667 6.81664 6.59H5.95664C5.98997 6.23 6.10997 5.92667 6.31664 5.68C6.52997 5.43333 6.79331 5.24667 7.10664 5.12C7.41997 4.98667 7.75331 4.92 8.10664 4.92C8.79997 4.92 9.31997 5.10667 9.66664 5.48C10.02 5.84667 10.1966 6.33667 10.1966 6.95V10H9.44664L9.39664 9.11C9.25664 9.39 9.04997 9.63 8.77664 9.83C8.50997 10.0233 8.14997 10.12 7.69664 10.12ZM7.82664 9.41C8.14664 9.41 8.41997 9.32667 8.64664 9.16C8.87997 8.99333 9.05664 8.77667 9.17664 8.51C9.29664 8.24333 9.35664 7.96333 9.35664 7.67V7.66H8.08664C7.59331 7.66 7.24331 7.74667 7.03664 7.92C6.83664 8.08667 6.73664 8.29667 6.73664 8.55C6.73664 8.81 6.82997 9.02 7.01664 9.18C7.20997 9.33333 7.47997 9.41 7.82664 9.41ZM13.2168 8.44C12.9368 8.44 12.6801 8.40333 12.4468 8.33L11.9468 8.8C12.0201 8.85333 12.1101 8.9 12.2168 8.94C12.3301 8.97333 12.4901 9.00667 12.6968 9.04C12.9035 9.06667 13.1935 9.09667 13.5668 9.13C14.2335 9.17667 14.7101 9.33 14.9968 9.59C15.2835 9.85 15.4268 10.19 15.4268 10.61C15.4268 10.8967 15.3468 11.17 15.1868 11.43C15.0335 11.69 14.7935 11.9033 14.4668 12.07C14.1468 12.2367 13.7335 12.32 13.2268 12.32C12.7801 12.32 12.3835 12.26 12.0368 12.14C11.6901 12.0267 11.4201 11.85 11.2268 11.61C11.0335 11.3767 10.9368 11.08 10.9368 10.72C10.9368 10.5333 10.9868 10.33 11.0868 10.11C11.1868 9.89667 11.3735 9.69333 11.6468 9.5C11.5001 9.44 11.3735 9.37667 11.2668 9.31C11.1668 9.23667 11.0735 9.15667 10.9868 9.07V8.84L11.8368 8C11.4435 7.66667 11.2468 7.22667 11.2468 6.68C11.2468 6.35333 11.3235 6.05667 11.4768 5.79C11.6301 5.52333 11.8535 5.31333 12.1468 5.16C12.4401 5 12.7968 4.92 13.2168 4.92C13.5035 4.92 13.7635 4.96 13.9968 5.04H15.8268V5.67L14.8968 5.71C15.0901 5.99 15.1868 6.31333 15.1868 6.68C15.1868 7.00667 15.1068 7.30333 14.9468 7.57C14.7935 7.83667 14.5701 8.05 14.2768 8.21C13.9901 8.36333 13.6368 8.44 13.2168 8.44ZM13.2168 7.75C13.5701 7.75 13.8501 7.66 14.0568 7.48C14.2701 7.29333 14.3768 7.02667 14.3768 6.68C14.3768 6.34 14.2701 6.08 14.0568 5.9C13.8501 5.71333 13.5701 5.62 13.2168 5.62C12.8568 5.62 12.5701 5.71333 12.3568 5.9C12.1501 6.08 12.0468 6.34 12.0468 6.68C12.0468 7.02667 12.1501 7.29333 12.3568 7.48C12.5701 7.66 12.8568 7.75 13.2168 7.75ZM11.7568 10.64C11.7568 10.9733 11.8968 11.22 12.1768 11.38C12.4568 11.5467 12.8068 11.63 13.2268 11.63C13.6401 11.63 13.9701 11.54 14.2168 11.36C14.4701 11.18 14.5968 10.94 14.5968 10.64C14.5968 10.4267 14.5101 10.24 14.3368 10.08C14.1635 9.92667 13.8435 9.83667 13.3768 9.81C13.0101 9.78333 12.6935 9.75 12.4268 9.71C12.1535 9.85667 11.9735 10.0133 11.8868 10.18C11.8001 10.3533 11.7568 10.5067 11.7568 10.64ZM18.2244 10.12C17.811 10.12 17.4677 10.05 17.1944 9.91C16.921 9.77 16.7177 9.58333 16.5844 9.35C16.451 9.11667 16.3844 8.86333 16.3844 8.59C16.3844 8.08333 16.5777 7.69333 16.9644 7.42C17.351 7.14667 17.8777 7.01 18.5444 7.01H19.8844V6.95C19.8844 6.51667 19.771 6.19 19.5444 5.97C19.3177 5.74333 19.0144 5.63 18.6344 5.63C18.3077 5.63 18.0244 5.71333 17.7844 5.88C17.551 6.04 17.4044 6.27667 17.3444 6.59H16.4844C16.5177 6.23 16.6377 5.92667 16.8444 5.68C17.0577 5.43333 17.321 5.24667 17.6344 5.12C17.9477 4.98667 18.281 4.92 18.6344 4.92C19.3277 4.92 19.8477 5.10667 20.1944 5.48C20.5477 5.84667 20.7244 6.33667 20.7244 6.95V10H19.9744L19.9244 9.11C19.7844 9.39 19.5777 9.63 19.3044 9.83C19.0377 10.0233 18.6777 10.12 18.2244 10.12ZM18.3544 9.41C18.6744 9.41 18.9477 9.32667 19.1744 9.16C19.4077 8.99333 19.5844 8.77667 19.7044 8.51C19.8244 8.24333 19.8844 7.96333 19.8844 7.67V7.66H18.6144C18.121 7.66 17.771 7.74667 17.5644 7.92C17.3644 8.08667 17.2644 8.29667 17.2644 8.55C17.2644 8.81 17.3577 9.02 17.5444 9.18C17.7377 9.33333 18.0077 9.41 18.3544 9.41ZM21.7845 10V5.04H22.5445L22.6045 5.76C22.7645 5.49333 22.9779 5.28667 23.2445 5.14C23.5112 4.99333 23.8112 4.92 24.1445 4.92C24.5379 4.92 24.8745 5 25.1545 5.16C25.4412 5.32 25.6612 5.56333 25.8145 5.89C25.9879 5.59 26.2245 5.35333 26.5245 5.18C26.8312 5.00667 27.1612 4.92 27.5145 4.92C28.1079 4.92 28.5812 5.1 28.9345 5.46C29.2879 5.81333 29.4645 6.36 29.4645 7.1V10H28.6345V7.19C28.6345 6.67667 28.5312 6.29 28.3245 6.03C28.1179 5.77 27.8212 5.64 27.4345 5.64C27.0345 5.64 26.7012 5.79667 26.4345 6.11C26.1745 6.41667 26.0445 6.85667 26.0445 7.43V10H25.2045V7.19C25.2045 6.67667 25.1012 6.29 24.8945 6.03C24.6879 5.77 24.3912 5.64 24.0045 5.64C23.6112 5.64 23.2812 5.79667 23.0145 6.11C22.7545 6.41667 22.6245 6.85667 22.6245 7.43V10H21.7845ZM32.7598 10.12C32.2865 10.12 31.8665 10.0133 31.4998 9.8C31.1332 9.58 30.8432 9.27667 30.6298 8.89C30.4232 8.50333 30.3198 8.04667 30.3198 7.52C30.3198 7 30.4232 6.54667 30.6298 6.16C30.8365 5.76667 31.1232 5.46333 31.4898 5.25C31.8632 5.03 32.2932 4.92 32.7798 4.92C33.2598 4.92 33.6732 5.03 34.0198 5.25C34.3732 5.46333 34.6432 5.74667 34.8298 6.1C35.0165 6.45333 35.1098 6.83333 35.1098 7.24C35.1098 7.31333 35.1065 7.38667 35.0998 7.46C35.0998 7.53333 35.0998 7.61667 35.0998 7.71H31.1498C31.1698 8.09 31.2565 8.40667 31.4098 8.66C31.5698 8.90667 31.7665 9.09333 31.9998 9.22C32.2398 9.34667 32.4932 9.41 32.7598 9.41C33.1065 9.41 33.3965 9.33 33.6298 9.17C33.8632 9.01 34.0332 8.79333 34.1398 8.52H34.9698C34.8365 8.98 34.5798 9.36333 34.1998 9.67C33.8265 9.97 33.3465 10.12 32.7598 10.12ZM32.7598 5.63C32.3598 5.63 32.0032 5.75333 31.6898 6C31.3832 6.24 31.2065 6.59333 31.1598 7.06H34.2798C34.2598 6.61333 34.1065 6.26333 33.8198 6.01C33.5332 5.75667 33.1798 5.63 32.7598 5.63ZM36.0232 10V5.04H36.7832L36.8332 5.93C36.9932 5.61667 37.2232 5.37 37.5232 5.19C37.8232 5.01 38.1632 4.92 38.5432 4.92C39.1299 4.92 39.5965 5.1 39.9432 5.46C40.2965 5.81333 40.4732 6.36 40.4732 7.1V10H39.6332V7.19C39.6332 6.15667 39.2065 5.64 38.3532 5.64C37.9265 5.64 37.5699 5.79667 37.2832 6.11C37.0032 6.41667 36.8632 6.85667 36.8632 7.43V10H36.0232ZM43.5059 10C43.0525 10 42.6959 9.89 42.4359 9.67C42.1759 9.45 42.0459 9.05333 42.0459 8.48V5.75H41.1859V5.04H42.0459L42.1559 3.85H42.8859V5.04H44.3459V5.75H42.8859V8.48C42.8859 8.79333 42.9492 9.00667 43.0759 9.12C43.2025 9.22667 43.4259 9.28 43.7459 9.28H44.2659V10H43.5059ZM47.3363 10.12C46.8697 10.12 46.4497 10.0133 46.0763 9.8C45.703 9.58667 45.4063 9.28667 45.1863 8.9C44.973 8.50667 44.8663 8.04667 44.8663 7.52C44.8663 6.99333 44.9763 6.53667 45.1963 6.15C45.4163 5.75667 45.713 5.45333 46.0863 5.24C46.4663 5.02667 46.8897 4.92 47.3563 4.92C47.823 4.92 48.243 5.02667 48.6163 5.24C48.9897 5.45333 49.283 5.75667 49.4963 6.15C49.7163 6.53667 49.8263 6.99333 49.8263 7.52C49.8263 8.04667 49.7163 8.50667 49.4963 8.9C49.2763 9.28667 48.9763 9.58667 48.5963 9.8C48.223 10.0133 47.803 10.12 47.3363 10.12ZM47.3363 9.4C47.623 9.4 47.8897 9.33 48.1363 9.19C48.383 9.05 48.583 8.84 48.7363 8.56C48.8897 8.28 48.9663 7.93333 48.9663 7.52C48.9663 7.10667 48.8897 6.76 48.7363 6.48C48.5897 6.2 48.393 5.99 48.1463 5.85C47.8997 5.71 47.6363 5.64 47.3563 5.64C47.0697 5.64 46.803 5.71 46.5563 5.85C46.3097 5.99 46.1097 6.2 45.9563 6.48C45.803 6.76 45.7263 7.10667 45.7263 7.52C45.7263 7.93333 45.803 8.28 45.9563 8.56C46.1097 8.84 46.3063 9.05 46.5463 9.19C46.793 9.33 47.0563 9.4 47.3363 9.4ZM52.6943 10.12C52.101 10.12 51.6076 9.97 51.2143 9.67C50.821 9.37 50.591 8.96333 50.5243 8.45H51.3843C51.4376 8.71 51.5743 8.93667 51.7943 9.13C52.021 9.31667 52.3243 9.41 52.7043 9.41C53.0576 9.41 53.3176 9.33667 53.4843 9.19C53.651 9.03667 53.7343 8.85667 53.7343 8.65C53.7343 8.35 53.6243 8.15 53.4043 8.05C53.191 7.95 52.8876 7.86 52.4943 7.78C52.2276 7.72667 51.961 7.65 51.6943 7.55C51.4276 7.45 51.2043 7.31 51.0243 7.13C50.8443 6.94333 50.7543 6.7 50.7543 6.4C50.7543 5.96667 50.9143 5.61333 51.2343 5.34C51.561 5.06 52.001 4.92 52.5543 4.92C53.081 4.92 53.511 5.05333 53.8443 5.32C54.1843 5.58 54.381 5.95333 54.4343 6.44H53.6043C53.571 6.18667 53.461 5.99 53.2743 5.85C53.0943 5.70333 52.851 5.63 52.5443 5.63C52.2443 5.63 52.011 5.69333 51.8443 5.82C51.6843 5.94667 51.6043 6.11333 51.6043 6.32C51.6043 6.52 51.7076 6.67667 51.9143 6.79C52.1276 6.90333 52.4143 7 52.7743 7.08C53.081 7.14667 53.371 7.23 53.6443 7.33C53.9243 7.42333 54.151 7.56667 54.3243 7.76C54.5043 7.94667 54.5943 8.22 54.5943 8.58C54.601 9.02667 54.431 9.39667 54.0843 9.69C53.7443 9.97667 53.281 10.12 52.6943 10.12ZM58.0408 12.2V5.04H58.8008L58.8808 5.86C59.0408 5.62 59.2674 5.40333 59.5608 5.21C59.8608 5.01667 60.2408 4.92 60.7008 4.92C61.1941 4.92 61.6241 5.03333 61.9908 5.26C62.3574 5.48667 62.6408 5.79667 62.8408 6.19C63.0474 6.58333 63.1508 7.03 63.1508 7.53C63.1508 8.03 63.0474 8.47667 62.8408 8.87C62.6408 9.25667 62.3541 9.56333 61.9808 9.79C61.6141 10.01 61.1841 10.12 60.6908 10.12C60.2841 10.12 59.9208 10.0367 59.6008 9.87C59.2874 9.70333 59.0474 9.47 58.8808 9.17V12.2H58.0408ZM60.6008 9.39C60.9341 9.39 61.2274 9.31333 61.4808 9.16C61.7341 9 61.9341 8.78 62.0808 8.5C62.2274 8.22 62.3008 7.89333 62.3008 7.52C62.3008 7.14667 62.2274 6.82 62.0808 6.54C61.9341 6.26 61.7341 6.04333 61.4808 5.89C61.2274 5.73 60.9341 5.65 60.6008 5.65C60.2674 5.65 59.9741 5.73 59.7208 5.89C59.4674 6.04333 59.2674 6.26 59.1208 6.54C58.9741 6.82 58.9008 7.14667 58.9008 7.52C58.9008 7.89333 58.9741 8.22 59.1208 8.5C59.2674 8.78 59.4674 9 59.7208 9.16C59.9741 9.31333 60.2674 9.39 60.6008 9.39ZM66.3801 10.12C65.9134 10.12 65.4934 10.0133 65.1201 9.8C64.7467 9.58667 64.4501 9.28667 64.2301 8.9C64.0167 8.50667 63.9101 8.04667 63.9101 7.52C63.9101 6.99333 64.0201 6.53667 64.2401 6.15C64.4601 5.75667 64.7567 5.45333 65.1301 5.24C65.5101 5.02667 65.9334 4.92 66.4001 4.92C66.8667 4.92 67.2867 5.02667 67.6601 5.24C68.0334 5.45333 68.3267 5.75667 68.5401 6.15C68.7601 6.53667 68.8701 6.99333 68.8701 7.52C68.8701 8.04667 68.7601 8.50667 68.5401 8.9C68.3201 9.28667 68.0201 9.58667 67.6401 9.8C67.2667 10.0133 66.8467 10.12 66.3801 10.12ZM66.3801 9.4C66.6667 9.4 66.9334 9.33 67.1801 9.19C67.4267 9.05 67.6267 8.84 67.7801 8.56C67.9334 8.28 68.0101 7.93333 68.0101 7.52C68.0101 7.10667 67.9334 6.76 67.7801 6.48C67.6334 6.2 67.4367 5.99 67.1901 5.85C66.9434 5.71 66.6801 5.64 66.4001 5.64C66.1134 5.64 65.8467 5.71 65.6001 5.85C65.3534 5.99 65.1534 6.2 65.0001 6.48C64.8467 6.76 64.7701 7.10667 64.7701 7.52C64.7701 7.93333 64.8467 8.28 65.0001 8.56C65.1534 8.84 65.3501 9.05 65.5901 9.19C65.8367 9.33 66.1001 9.4 66.3801 9.4ZM69.838 10V5.04H70.598L70.668 5.99C70.8214 5.66333 71.0547 5.40333 71.368 5.21C71.6814 5.01667 72.068 4.92 72.528 4.92V5.8H72.298C72.0047 5.8 71.7347 5.85333 71.488 5.96C71.2414 6.06 71.0447 6.23333 70.898 6.48C70.7514 6.72667 70.678 7.06667 70.678 7.5V10H69.838Z" fill="#DDDDDD"/>
<g clip-path="url(#clip0_1_519)">
<path fill-rule="evenodd" clip-rule="evenodd" d="M105.721 4.99717H105.294C105.068 4.99797 104.851 5.08503 104.691 5.23932C104.531 5.39362 104.441 5.60264 104.44 5.82075V7.99118C104.467 8.55655 104.719 9.09024 105.144 9.48123C105.568 9.87222 106.133 10.0904 106.72 10.0904C107.307 10.0904 107.872 9.87222 108.297 9.48123C108.721 9.09024 108.973 8.55655 109 7.99118V4.99717H108.573C108.347 4.99797 108.13 5.085 107.97 5.23928C107.81 5.39356 107.72 5.60257 107.719 5.82075V7.99118C107.719 8.24641 107.614 8.49119 107.426 8.67167C107.239 8.85214 106.985 8.95353 106.72 8.95353C106.455 8.95353 106.201 8.85214 106.014 8.67167C105.827 8.49119 105.721 8.24641 105.721 7.99118V4.99717V4.99717ZM101.174 6.04523C101.908 6.04523 102.197 6.5829 102.197 7.2586C102.197 7.9343 101.735 8.47198 101.012 8.47198C100.333 8.47198 99.9892 8.00407 99.9892 7.27225C99.9892 6.54043 100.516 6.04295 101.176 6.04295L101.174 6.04523ZM102.197 9.41158V9.291C101.941 9.53368 101.573 9.70962 101.012 9.70962C99.5477 9.70962 98.704 8.61606 98.704 7.27453C98.704 5.9201 99.7476 4.80986 101.172 4.80986C102.655 4.80986 103.478 5.91934 103.478 7.26163C103.478 7.30486 103.478 7.34733 103.478 7.38904V9.40097C103.478 10.8472 102.455 11.6988 100.999 11.6988C100.016 11.6988 99.1274 11.375 99.1274 10.6014V10.1904C99.5752 10.434 100.075 10.5744 100.589 10.6007C101.264 10.6477 102.197 10.5438 102.197 9.41234V9.41158ZM94.6598 4.99717H94.2325C94.0061 4.99797 93.7893 5.08503 93.6293 5.23932C93.4693 5.39362 93.3792 5.60264 93.3786 5.82075V7.99118C93.3646 8.2881 93.4131 8.58468 93.5214 8.863C93.6296 9.14132 93.7953 9.39562 94.0084 9.61051C94.2215 9.82541 94.4776 9.99646 94.7612 10.1133C95.0448 10.2302 95.35 10.2904 95.6585 10.2904C95.9669 10.2904 96.2721 10.2302 96.5557 10.1133C96.8393 9.99646 97.0954 9.82541 97.3085 9.61051C97.5216 9.39562 97.6873 9.14132 97.7955 8.863C97.9038 8.58468 97.9523 8.2881 97.9383 7.99118V4.99717H97.5118C97.2854 4.99797 97.0685 5.085 96.9084 5.23928C96.7483 5.39356 96.658 5.60257 96.6571 5.82075V7.99118C96.6571 8.24641 96.5519 8.49119 96.3646 8.67167C96.1773 8.85214 95.9233 8.95353 95.6585 8.95353C95.3936 8.95353 95.1396 8.85214 94.9523 8.67167C94.765 8.49119 94.6598 8.24641 94.6598 7.99118V4.99717V4.99717ZM92.4177 4.99717H91.9904C91.764 4.99797 91.547 5.085 91.3869 5.23928C91.2269 5.39356 91.1365 5.60257 91.1357 5.82075V9.17952C91.1365 9.3977 91.2269 9.60672 91.3869 9.761C91.547 9.91528 91.764 10.0023 91.9904 10.0031H92.4177V4.99793V4.99717ZM91.4544 3.30148H92.099C92.1821 3.30266 92.2614 3.33499 92.3202 3.39163C92.379 3.44827 92.4125 3.52474 92.4138 3.60483V4.22668C92.4125 4.30677 92.379 4.38324 92.3202 4.43988C92.2614 4.49651 92.1821 4.52885 92.099 4.53003H91.4544C91.3706 4.52983 91.2903 4.49793 91.2307 4.44119C91.1711 4.38445 91.1369 4.30742 91.1357 4.22668V3.60786C91.1369 3.52712 91.1711 3.45009 91.2307 3.39335C91.2903 3.33661 91.3706 3.30471 91.4544 3.30452V3.30148Z" fill="#DDDDDD"/>
<path fill-rule="evenodd" clip-rule="evenodd" d="M88.1562 8.47944C88.4553 8.4438 88.5812 8.35052 88.5733 8.01836C88.5652 7.716 88.536 7.41451 88.486 7.11591C88.3073 6.14749 87.865 5.31936 87.1615 4.70661C86.3855 4.03091 85.3168 3.6449 83.9656 3.6487C83.5731 3.65348 83.1842 3.57585 82.826 3.42119C82.4663 3.26199 82.1466 3.02967 81.8888 2.74018L81.4661 2.27455C81.32 2.11365 81.1136 2.01526 80.8922 2.00104C80.6708 1.98682 80.4527 2.05792 80.2857 2.19871C80.1187 2.3395 80.0166 2.53845 80.0019 2.75178C79.9871 2.96511 80.0609 3.17535 80.207 3.33625L80.6296 3.80113C81.0456 4.26407 81.5598 4.63568 82.1374 4.89089C82.7139 5.1408 83.3398 5.26707 83.9719 5.26097C84.8793 5.25414 85.5694 5.48848 86.0408 5.89951C86.4957 6.29537 86.7719 6.87779 86.8648 7.58306C86.96 8.3164 87.4464 8.56286 88.1562 8.47944ZM80.9814 6.5206C81.6896 6.43718 82.1776 6.68365 82.2728 7.41698C82.3657 8.12226 82.6419 8.70619 83.0975 9.10054C83.5697 9.51005 84.2568 9.7459 85.1657 9.74211C85.7973 9.73497 86.423 9.86021 86.9994 10.1092C87.577 10.3644 88.0912 10.736 88.5072 11.1989L88.9306 11.6646C89.0767 11.8255 89.1505 12.0357 89.1357 12.249C89.121 12.4624 89.0189 12.6613 88.8519 12.8021C88.6849 12.9429 88.4668 13.014 88.2454 12.9998C88.024 12.9855 87.8175 12.8872 87.6714 12.7263L87.248 12.2599C86.99 11.9702 86.6704 11.7375 86.3108 11.5773C85.9526 11.4227 85.5637 11.345 85.1712 11.3498C83.82 11.3559 82.7513 10.9707 81.9753 10.2881C81.2718 9.67613 80.8295 8.84725 80.6508 7.87958C80.6008 7.58098 80.5716 7.27949 80.5635 6.97713C80.5564 6.64497 80.6815 6.55169 80.9806 6.51605L80.9814 6.5206ZM84.119 6.63891H85.0185C85.1362 6.63911 85.249 6.68423 85.3322 6.7644C85.4154 6.84457 85.4622 6.95324 85.4624 7.06662V7.93342C85.4622 8.0468 85.4154 8.15547 85.3322 8.23564C85.249 8.31581 85.1362 8.36094 85.0185 8.36114H84.119C84.0014 8.36094 83.8886 8.31581 83.8054 8.23564C83.7222 8.15547 83.6754 8.0468 83.6752 7.93342V7.06662C83.6754 6.95324 83.7222 6.84457 83.8054 6.7644C83.8886 6.68423 84.0014 6.63911 84.119 6.63891V6.63891Z" fill="#DDDDDD"/>
</g>
<defs>
<clipPath id="clip0_1_519">
<rect width="29" height="11" fill="white" transform="translate(80 2)"/>
</clipPath>
</defs>
</svg>
